<svg width="446" height="265" fill="none" xmlns="http://www.w3.org/2000/svg"><path d="M96.921 132.127h12.042v34.263c0 4.703-1.07 8.129-3.211 10.279-2.096 2.105-5.486 3.158-10.169 3.158H80.196c-4.683 0-8.094-1.053-10.235-3.158-2.096-2.15-3.145-5.576-3.145-10.279v-34.263h12.042v34.263c0 2.687 1.338 4.031 4.014 4.031h10.035c2.676 0 4.014-1.344 4.014-4.031v-34.263zm39.137 20.491c-2.364 0-5.04.447-8.028 1.343v25.194h-11.708v-35.607h10.37l.669 3.359c2.096-1.389 4.237-2.396 6.422-3.023 2.23-.672 4.103-1.008 5.62-1.008h3.01c3.033 0 5.464.918 7.292 2.754 1.829 1.837 2.743 4.278 2.743 7.323v26.202h-11.707v-24.186c0-.672-.223-1.232-.669-1.68-.446-.448-1.004-.671-1.673-.671h-2.341zm37.122-7.727v34.264h-11.708v-25.194h-5.017v-9.07h16.725zm-11.708-13.436h11.708v9.405h-11.708v-9.405zm42.168 12.093h12.376l-13.38 35.607h-13.38l-13.38-35.607h12.377l7.693 24.186 7.694-24.186zm28.119 7.726c-1.784 0-2.676.896-2.676 2.687v3.695h11.373v-3.695c0-1.791-.892-2.687-2.676-2.687h-6.021zm19.066 27.209c-8.608.896-16.413 1.344-23.415 1.344-3.033 0-5.463-.918-7.292-2.755-1.828-1.836-2.743-4.277-2.743-7.323v-16.124c0-3.359.937-5.979 2.81-7.86 1.918-1.926 4.549-2.889 7.894-2.889h13.38c3.345 0 5.954.963 7.828 2.889 1.917 1.881 2.876 4.501 2.876 7.86v12.429h-23.08v2.687c0 .672.223 1.232.669 1.68.446.448 1.003.672 1.672.672 4.416 0 10.883-.336 19.401-1.008v8.398zm27.738-25.194c-2.81 0-5.709.672-8.697 2.016v23.85h-11.708v-35.607h10.37l.669 4.367c3.835-3.359 7.849-5.039 12.042-5.039h3.01v10.413h-5.686zm9.029 16.46c9.053.672 16.189 1.008 21.408 1.008.669 0 1.226-.224 1.672-.672.446-.448.669-1.008.669-1.679v-2.352h-14.383c-3.033 0-5.464-.918-7.293-2.754-1.828-1.837-2.742-4.278-2.742-7.323v-2.352c0-3.045.914-5.486 2.742-7.323 1.829-1.836 4.26-2.754 7.293-2.754h22.746v8.734h-18.732c-.669 0-1.227.224-1.673.671-.446.448-.669 1.008-.669 1.68 0 .672.223 1.232.669 1.68.446.447 1.004.671 1.673.671h12.042c3.032 0 5.463.919 7.292 2.755 1.828 1.836 2.743 4.277 2.743 7.323v2.687c0 3.046-.915 5.487-2.743 7.323-1.829 1.837-4.26 2.755-7.292 2.755-7.895 0-16.369-.448-25.422-1.344v-8.734zm54.194.672c2.364 0 5.04-.448 8.028-1.344v-4.031h-9.701c-.669 0-1.226.224-1.672.672-.446.448-.669 1.008-.669 1.68v.672c0 .671.223 1.231.669 1.679.446.448 1.003.672 1.672.672h1.673zm-12.377-26.201c8.162-.896 15.521-1.344 22.077-1.344 3.033 0 5.464.918 7.292 2.754 1.829 1.837 2.743 4.278 2.743 7.323v26.202h-10.369l-.669-3.359c-2.096 1.388-4.26 2.418-6.49 3.09-2.185.627-4.036.941-5.552.941h-2.342c-3.033 0-5.463-.918-7.292-2.755-1.828-1.836-2.743-4.277-2.743-7.323v-3.023c0-3.046.915-5.487 2.743-7.323 1.829-1.836 4.259-2.754 7.292-2.754h13.715v-2.688c0-.672-.223-1.232-.669-1.679-.446-.448-1.004-.672-1.673-.672-2.899 0-6.11.134-9.633.403-3.479.269-6.289.47-8.43.605v-8.398zm56.177 34.935c-2.989.448-5.843.672-8.564.672-2.676 0-4.928-.918-6.755-2.755-1.829-1.836-2.743-4.277-2.743-7.323v-37.622h11.706v35.943c0 .671.223 1.231.669 1.679.446.448 1.004.672 1.673.672h4.014v8.734z" fill="url(#paint0_linear_48_85)"/><path d="M220.939 96.968l-9.366 16.795h-9.366l-9.366-16.795v26.201h-12.042V76.141h12.711l13.38 24.858 13.38-24.858h12.711v47.028h-12.042V96.968zm28.793 38.294c-2.364 0-5.263-.224-8.697-.672v-8.734h6.021c1.695 0 2.788-.47 3.278-1.41.535-.941.446-2.262-.267-3.964l-13.715-32.92h12.377l8.362 22.842 7.025-22.842h12.376l-13.38 36.951c-1.293 3.538-2.966 6.203-5.017 7.994-2.052 1.837-4.839 2.755-8.363 2.755z" fill="#fff"/><path d="M22.3 134.366l5.007 15.474h16.201l-13.107 9.564 5.007 15.474-13.108-9.564-13.108 9.564 5.007-15.474-13.108-9.564h16.202l5.007-15.474z" fill="url(#paint1_linear_48_85)"/><path d="M423.7 134.366l5.006 15.474h16.201l-13.105 9.564 5.007 15.474-13.109-9.564-13.109 9.564 5.007-15.474-13.105-9.564h16.201l5.006-15.474z" fill="url(#paint2_linear_48_85)"/><path fill-rule="evenodd" clip-rule="evenodd" d="M283.356 242.606c-17.86 11.797-39.239 18.662-62.214 18.662-22.976 0-44.355-6.865-62.215-18.662h-6.533C171.698 256.692 195.454 265 221.142 265c25.687 0 49.443-8.308 68.747-22.394h-6.533zM112.244 115.704c13.679-47.433 57.255-82.112 108.898-82.112 51.642 0 95.219 34.679 108.898 82.112h3.865c-13.787-49.52-59.051-85.845-112.763-85.845-53.713 0-98.977 36.324-112.763 85.845h3.865z" fill="#1FA7F3"/><path d="M90.204 219.241c4.526.336 8.094.504 10.704.504a1.142 1.142 0 001.17-1.176v-1.176h-7.192c-1.516 0-2.731-.459-3.645-1.377-.915-.918-1.372-2.139-1.372-3.661v-1.176c0-1.523.457-2.743 1.371-3.662.915-.918 2.13-1.377 3.647-1.377h11.373v4.367h-9.367a1.142 1.142 0 00-1.17 1.176 1.142 1.142 0 001.17 1.175h6.022c1.516 0 2.731.46 3.646 1.378.914.918 1.371 2.138 1.371 3.661v1.344c0 1.523-.457 2.743-1.371 3.661-.915.919-2.13 1.378-3.646 1.378-3.948 0-8.185-.224-12.712-.672v-4.367zm26.929-9.238c-.892 0-1.338.448-1.338 1.344v1.847h5.687v-1.847c0-.896-.446-1.344-1.338-1.344h-3.011zm9.534 13.605c-4.304.448-8.207.672-11.708.672-1.516 0-2.732-.459-3.646-1.378-.914-.918-1.371-2.138-1.371-3.661v-8.062c0-1.68.468-2.99 1.405-3.93.958-.963 2.274-1.445 3.947-1.445h6.69c1.672 0 2.977.482 3.913 1.445.959.94 1.439 2.25 1.439 3.93v6.214h-11.541v1.344a1.143 1.143 0 001.171 1.176c2.208 0 5.441-.168 9.701-.504v4.199zm13.868-12.597c-1.405 0-2.854.336-4.348 1.008v11.925h-5.854V206.14h5.185l.334 2.184c1.918-1.68 3.925-2.52 6.021-2.52h1.506v5.207h-2.844zm17.058-4.871h6.189l-6.69 17.804h-6.69l-6.69-17.804h6.188l3.847 12.093 3.846-12.093zm14.888.672v17.132h-5.854v-12.597h-2.508v-4.535h8.362zm-5.854-6.718h5.854v4.703h-5.854v-4.703zm24.932 23.514c-4.171.448-7.85.672-11.039.672-1.516 0-2.732-.459-3.646-1.378-.914-.918-1.371-2.138-1.371-3.661v-7.726c0-1.68.468-2.99 1.404-3.93.959-.963 2.275-1.445 3.948-1.445h10.704v4.535h-8.865c-.892 0-1.338.448-1.338 1.344v6.55a1.143 1.143 0 001.171 1.176c2.007 0 5.018-.168 9.032-.504v4.367zm9.526-13.605c-.892 0-1.338.448-1.338 1.344v1.847h5.687v-1.847c0-.896-.446-1.344-1.338-1.344h-3.011zm9.533 13.605c-4.304.448-8.206.672-11.707.672-1.517 0-2.732-.459-3.646-1.378-.915-.918-1.372-2.138-1.372-3.661v-8.062c0-1.68.469-2.99 1.405-3.93.959-.963 2.275-1.445 3.947-1.445h6.69c1.673 0 2.977.482 3.914 1.445.959.94 1.438 2.25 1.438 3.93v6.214h-11.54v1.344a1.143 1.143 0 001.171 1.176c2.208 0 5.441-.168 9.7-.504v4.199zm26.239.336l-.335-1.68a12.286 12.286 0 01-3.244 1.545c-1.093.314-2.018.471-2.777.471h-1.505c-1.516 0-2.732-.459-3.646-1.378-.914-.918-1.371-2.138-1.371-3.661v-7.726c0-1.68.468-2.99 1.405-3.93.958-.963 2.274-1.445 3.947-1.445h6.857v-5.71h5.854v23.514h-5.185zm-4.683-4.535c1.182 0 2.52-.224 4.014-.672v-8.062h-5.018c-.892 0-1.338.448-1.338 1.344v6.214a1.143 1.143 0 001.171 1.176h1.171zm20.066-9.406c-.892 0-1.338.448-1.338 1.344v1.847h5.687v-1.847c0-.896-.446-1.344-1.338-1.344h-3.011zm9.533 13.605c-4.304.448-8.206.672-11.707.672-1.516 0-2.732-.459-3.646-1.378-.914-.918-1.372-2.138-1.372-3.661v-8.062c0-1.68.469-2.99 1.405-3.93.959-.963 2.275-1.445 3.947-1.445h6.69c1.673 0 2.977.482 3.914 1.445.959.94 1.438 2.25 1.438 3.93v6.214h-11.54v1.344a1.143 1.143 0 001.171 1.176c2.208 0 5.441-.168 9.7-.504v4.199zm2.998-4.367c4.527.336 8.095.504 10.704.504a1.143 1.143 0 001.171-1.176v-1.176h-7.192c-1.516 0-2.732-.459-3.646-1.377-.914-.918-1.372-2.139-1.372-3.661v-1.176c0-1.523.458-2.743 1.372-3.662.914-.918 2.13-1.377 3.646-1.377h11.373v4.367h-9.366a1.143 1.143 0 00-1.171 1.176 1.143 1.143 0 001.171 1.175h6.021c1.516 0 2.732.46 3.646 1.378.914.918 1.371 2.138 1.371 3.661v1.344c0 1.523-.457 2.743-1.371 3.661-.914.919-2.13 1.378-3.646 1.378-3.947 0-8.184-.224-12.711-.672v-4.367zm27.105-12.429v17.132h-5.854v-12.597h-2.509v-4.535h8.363zm-5.854-6.718h5.854v4.703h-5.854v-4.703zm19.411 10.917c-1.404 0-2.854.336-4.348 1.008v11.925h-5.854V206.14h5.185l.334 2.184c1.918-1.68 3.925-2.52 6.021-2.52h1.506v5.207h-2.844zm11.388-1.008c-.892 0-1.338.448-1.338 1.344v1.847h5.686v-1.847c0-.896-.446-1.344-1.338-1.344h-3.01zm9.533 13.605c-4.304.448-8.207.672-11.708.672-1.516 0-2.731-.459-3.646-1.378-.914-.918-1.371-2.138-1.371-3.661v-8.062c0-1.68.468-2.99 1.405-3.93.959-.963 2.274-1.445 3.947-1.445h6.69c1.672 0 2.977.482 3.913 1.445.959.94 1.439 2.25 1.439 3.93v6.214h-11.54v1.344a1.142 1.142 0 001.17 1.176c2.208 0 5.442-.168 9.701-.504v4.199zm2.997-4.367c4.527.336 8.095.504 10.704.504a1.142 1.142 0 001.171-1.176v-1.176h-7.192c-1.516 0-2.731-.459-3.646-1.377-.914-.918-1.371-2.139-1.371-3.661v-1.176c0-1.523.457-2.743 1.371-3.662.915-.918 2.13-1.377 3.646-1.377h11.373v4.367h-9.366a1.142 1.142 0 00-1.17 1.176 1.142 1.142 0 001.17 1.175h6.021c1.517 0 2.732.46 3.646 1.378.915.918 1.372 2.138 1.372 3.661v1.344c0 1.523-.457 2.743-1.372 3.661-.914.919-2.129 1.378-3.646 1.378-3.947 0-8.184-.224-12.711-.672v-4.367z" fill="#fff"/><path d="M55.75 192.218h338.217" stroke="#1FA7F3" stroke-width="2"/><path d="M223 0l7.51 20.632h24.303l-19.662 12.751 7.511 20.633L223 41.264l-19.662 12.752 7.511-20.633-19.662-12.75h24.303L223 0z" fill="url(#paint3_linear_48_85)"/><defs><linearGradient id="paint0_linear_48_85" x1="224.858" y1="115.704" x2="224.858" y2="194.084" gradientUnits="userSpaceOnUse"><stop offset=".365" stop-color="#fff"/><stop offset="1" stop-color="#62D7FD"/></linearGradient><linearGradient id="paint1_linear_48_85" x1="22.121" y1="121.175" x2="22.121" y2="186.819" gradientUnits="userSpaceOnUse"><stop offset=".391" stop-color="#fff"/><stop offset="1" stop-color="#62D7FD"/></linearGradient><linearGradient id="paint2_linear_48_85" x1="423.521" y1="121.175" x2="423.521" y2="186.819" gradientUnits="userSpaceOnUse"><stop offset=".391" stop-color="#fff"/><stop offset="1" stop-color="#62D7FD"/></linearGradient><linearGradient id="paint3_linear_48_85" x1="222.732" y1="-17.588" x2="222.732" y2="69.937" gradientUnits="userSpaceOnUse"><stop offset=".234" stop-color="#fff"/><stop offset="1" stop-color="#62D7FD"/></linearGradient></defs></svg>