<svg width="120" height="71" fill="none" xmlns="http://www.w3.org/2000/svg"><path d="M26.078 35.4h3.24v9.18c0 1.26-.289 2.178-.865 2.754-.563.564-1.476.846-2.735.846h-4.14c-1.26 0-2.178-.282-2.755-.846-.564-.576-.846-1.494-.846-2.754V35.4h3.24v9.18c0 .72.36 1.08 1.08 1.08h2.7c.72 0 1.08-.36 1.08-1.08V35.4zm10.53 5.49c-.636 0-1.356.12-2.16.36V48h-3.15v-9.54h2.79l.18.9a6.262 6.262 0 011.727-.81c.6-.18 1.105-.27 1.513-.27h.81c.816 0 1.47.246 1.962.738s.737 1.146.737 1.962V48h-3.15v-6.48a.61.61 0 00-.18-.45.61.61 0 00-.45-.18h-.63zm9.987-2.07V48h-3.15v-6.75h-1.35v-2.43h4.5zm-3.15-3.6h3.15v2.52h-3.15v-2.52zm11.346 3.24h3.33l-3.6 9.54h-3.6l-3.6-9.54h3.33l2.07 6.48 2.07-6.48zm7.566 2.07c-.48 0-.72.24-.72.72v.99h3.06v-.99c0-.48-.24-.72-.72-.72h-1.62zm5.13 7.29c-2.316.24-4.416.36-6.3.36-.816 0-1.47-.246-1.962-.738s-.738-1.146-.738-1.962v-4.32c0-.9.252-1.602.756-2.106.516-.516 1.224-.774 2.124-.774h3.6c.9 0 1.602.258 2.106.774.516.504.774 1.206.774 2.106v3.33h-6.21v.72c0 .18.06.33.18.45s.27.18.45.18c1.188 0 2.928-.09 5.22-.27v2.25zm7.463-6.75c-.756 0-1.536.18-2.34.54V48h-3.15v-9.54h2.79l.18 1.17c1.032-.9 2.112-1.35 3.24-1.35h.81v2.79h-1.53zm2.429 4.41c2.436.18 4.356.27 5.76.27.18 0 .33-.06.45-.18a.61.61 0 00.18-.45v-.63h-3.87c-.816 0-1.47-.246-1.962-.738s-.738-1.146-.738-1.962v-.63c0-.816.246-1.47.738-1.962s1.146-.738 1.962-.738h6.12v2.34h-5.04a.61.61 0 00-.45.18.61.61 0 00-.18.45c0 .18.06.33.18.45s.27.18.45.18h3.24c.816 0 1.47.246 1.962.738s.738 1.146.738 1.962v.72c0 .816-.246 1.47-.738 1.962s-1.146.738-1.962.738c-2.124 0-4.404-.12-6.84-.36v-2.34zm14.581.18c.636 0 1.356-.12 2.16-.36v-1.08h-2.61a.61.61 0 00-.45.18.61.61 0 00-.18.45v.18c0 .18.06.33.18.45s.27.18.45.18h.45zm-3.33-7.02c2.196-.24 4.176-.36 5.94-.36.816 0 1.47.246 1.962.738s.738 1.146.738 1.962V48h-2.79l-.18-.9a6.622 6.622 0 01-1.746.828c-.588.168-1.086.252-1.494.252h-.63c-.816 0-1.47-.246-1.962-.738s-.738-1.146-.738-1.962v-.81c0-.816.246-1.47.738-1.962s1.146-.738 1.962-.738h3.69v-.72a.61.61 0 00-.18-.45.61.61 0 00-.45-.18c-.78 0-1.644.036-2.592.108-.936.072-1.692.126-2.268.162v-2.25zM103.745 48c-.804.12-1.572.18-2.304.18-.72 0-1.326-.246-1.818-.738s-.738-1.146-.738-1.962V35.4h3.15v9.63c0 .18.06.33.18.45s.27.18.45.18h1.08V48z" fill="url(#paint0_linear_45_38)"/><path d="M59.445 25.98l-2.52 4.5h-2.52l-2.52-4.5V33h-3.24V20.4h3.42l3.6 6.66 3.6-6.66h3.42V33h-3.24v-7.02zm7.747 10.26c-.635 0-1.415-.06-2.34-.18v-2.34h1.62c.457 0 .75-.126.883-.378.144-.252.12-.606-.073-1.062l-3.69-8.82h3.33l2.25 6.12 1.89-6.12h3.33l-3.6 9.9c-.347.948-.797 1.662-1.35 2.142-.551.492-1.301.738-2.25.738z" fill="#fff"/><path d="M6 36l1.347 4.146h4.36L8.18 42.708l1.347 4.146L6 44.292l-3.527 2.562 1.347-4.146-3.526-2.562h4.359L6 36zm108 0l1.347 4.146h4.359l-3.526 2.562 1.347 4.146L114 44.292l-3.527 2.562 1.347-4.146-3.526-2.562h4.359L114 36z" fill="#1FA7F3"/><path fill-rule="evenodd" clip-rule="evenodd" d="M76.24 65a30.357 30.357 0 01-16.74 5 30.358 30.358 0 01-16.74-5h-1.757A31.358 31.358 0 0059.5 71a31.358 31.358 0 0018.497-6H76.24zM30.2 31C33.88 18.291 45.605 9 59.5 9c13.895 0 25.62 9.291 29.3 22h1.04C86.13 17.732 73.952 8 59.5 8s-26.63 9.732-30.34 23h1.04z" fill="#1FA7F3"/><path d="M24.27 58.74c1.218.09 2.178.135 2.88.135a.305.305 0 00.315-.315v-.315H25.53c-.408 0-.735-.123-.981-.369s-.369-.573-.369-.981v-.315c0-.408.123-.735.369-.981s.573-.369.981-.369h3.06v1.17h-2.52a.305.305 0 00-.315.315.305.305 0 00.315.315h1.62c.408 0 .735.123.981.369s.369.573.369.981v.36c0 .408-.123.735-.369.981s-.573.369-.981.369c-1.062 0-2.202-.06-3.42-.18v-1.17zm7.246-2.475c-.24 0-.36.12-.36.36v.495h1.53v-.495c0-.24-.12-.36-.36-.36h-.81zm2.565 3.645c-1.158.12-2.208.18-3.15.18-.408 0-.735-.123-.981-.369s-.37-.573-.37-.981v-2.16c0-.45.127-.801.379-1.053.258-.258.612-.387 1.062-.387h1.8c.45 0 .8.129 1.053.387.258.252.387.603.387 1.053v1.665h-3.105v.36a.305.305 0 00.315.315c.594 0 1.464-.045 2.61-.135v1.125zm3.731-3.375c-.378 0-.768.09-1.17.27V60h-1.575v-4.77h1.395l.09.585c.516-.45 1.056-.675 1.62-.675h.405v1.395h-.765zm4.59-1.305h1.665l-1.8 4.77h-1.8l-1.8-4.77h1.665l1.035 3.24 1.035-3.24zm4.005.18V60h-1.574v-3.375h-.675V55.41h2.25zm-1.574-1.8h1.575v1.26h-1.575v-1.26zm6.707 6.3c-1.122.12-2.112.18-2.97.18-.408 0-.735-.123-.98-.369-.247-.246-.37-.573-.37-.981v-2.07c0-.45.126-.801.378-1.053.258-.258.612-.387 1.062-.387h2.88v1.215h-2.385c-.24 0-.36.12-.36.36v1.755a.305.305 0 00.315.315c.54 0 1.35-.045 2.43-.135v1.17zm2.564-3.645c-.24 0-.36.12-.36.36v.495h1.53v-.495c0-.24-.12-.36-.36-.36h-.81zm2.565 3.645c-1.158.12-2.208.18-3.15.18-.408 0-.735-.123-.981-.369s-.37-.573-.37-.981v-2.16c0-.45.127-.801.379-1.053.258-.258.612-.387 1.062-.387h1.8c.45 0 .8.129 1.053.387.258.252.387.603.387 1.053v1.665h-3.105v.36a.305.305 0 00.315.315c.594 0 1.464-.045 2.61-.135v1.125zm7.06.09l-.09-.45a3.311 3.311 0 01-.874.414 2.803 2.803 0 01-.747.126h-.405c-.408 0-.735-.123-.98-.369-.247-.246-.37-.573-.37-.981v-2.07c0-.45.126-.801.378-1.053.258-.258.612-.387 1.062-.387h1.845V53.7h1.575V60h-1.395zm-1.26-1.215c.317 0 .677-.06 1.08-.18v-2.16h-1.35c-.24 0-.36.12-.36.36v1.665a.305.305 0 00.314.315h.315zm5.398-2.52c-.24 0-.36.12-.36.36v.495h1.53v-.495c0-.24-.12-.36-.36-.36h-.81zm2.565 3.645c-1.158.12-2.208.18-3.15.18-.408 0-.735-.123-.98-.369-.247-.246-.37-.573-.37-.981v-2.16c0-.45.126-.801.378-1.053.258-.258.612-.387 1.062-.387h1.8c.45 0 .801.129 1.053.387.258.252.387.603.387 1.053v1.665h-3.105v.36a.305.305 0 00.315.315c.594 0 1.464-.045 2.61-.135v1.125zm.807-1.17c1.218.09 2.178.135 2.88.135a.305.305 0 00.315-.315v-.315h-1.935c-.408 0-.735-.123-.981-.369s-.37-.573-.37-.981v-.315c0-.408.124-.735.37-.981s.573-.369.98-.369h3.06v1.17h-2.52a.305.305 0 00-.314.315.305.305 0 00.315.315h1.62c.408 0 .735.123.98.369.247.246.37.573.37.981v.36c0 .408-.123.735-.37.981-.245.246-.572.369-.98.369-1.062 0-2.202-.06-3.42-.18v-1.17zm7.293-3.33V60h-1.575v-3.375h-.675V55.41h2.25zm-1.575-1.8h1.575v1.26h-1.575v-1.26zm5.222 2.925c-.378 0-.768.09-1.17.27V60h-1.575v-4.77h1.395l.09.585c.516-.45 1.056-.675 1.62-.675h.405v1.395h-.765zm3.064-.27c-.24 0-.36.12-.36.36v.495h1.53v-.495c0-.24-.12-.36-.36-.36h-.81zm2.565 3.645c-1.158.12-2.208.18-3.15.18-.408 0-.735-.123-.98-.369-.247-.246-.37-.573-.37-.981v-2.16c0-.45.126-.801.378-1.053.258-.258.612-.387 1.062-.387h1.8c.45 0 .801.129 1.053.387.258.252.387.603.387 1.053v1.665h-3.105v.36a.305.305 0 00.315.315c.594 0 1.464-.045 2.61-.135v1.125zm.807-1.17c1.218.09 2.178.135 2.88.135a.305.305 0 00.315-.315v-.315h-1.935c-.408 0-.735-.123-.981-.369s-.37-.573-.37-.981v-.315c0-.408.124-.735.37-.981s.573-.369.98-.369h3.06v1.17h-2.52a.305.305 0 00-.314.315.305.305 0 00.315.315h1.62c.408 0 .735.123.98.369.247.246.37.573.37.981v.36c0 .408-.123.735-.37.981-.245.246-.572.369-.98.369-1.062 0-2.202-.06-3.42-.18v-1.17z" fill="#1FA7F3"/><path stroke="#1FA7F3" d="M15 51.5h91"/><path d="M60 0l2.02 5.528h6.54l-5.29 3.416 2.02 5.528L60 11.056l-5.29 3.416 2.02-5.528-5.29-3.416h6.54L60 0z" fill="#1FA7F3"/><defs><linearGradient id="paint0_linear_45_38" x1="60.5" y1="31" x2="60.5" y2="52" gradientUnits="userSpaceOnUse"><stop offset=".51" stop-color="#fff"/><stop offset="1" stop-color="#62D7FD"/></linearGradient></defs></svg>