<svg width="118" height="24" fill="none" xmlns="http://www.w3.org/2000/svg"><rect width="2" height="5" rx="1" transform="matrix(-1 0 0 1 2 9)" fill="#1FA7F3"/><rect width="2" height="17" rx="1" transform="matrix(-1 0 0 1 22 3)" fill="#1FA7F3"/><rect width="2" height="5" rx="1" transform="matrix(-1 0 0 1 42 9)" fill="#1FA7F3"/><rect width="2" height="15" rx="1" transform="matrix(-1 0 0 1 62 4)" fill="#1FA7F3"/><rect width="2" height="7" rx="1" transform="matrix(-1 0 0 1 82 8)" fill="#1FA7F3"/><rect width="2" height="10" rx="1" transform="matrix(-1 0 0 1 102 7)" fill="#1FA7F3"/><rect width="2" height="10" rx="1" transform="matrix(-1 0 0 1 6 7)" fill="#1FA7F3"/><rect width="2" height="14" rx="1" transform="matrix(-1 0 0 1 26 5)" fill="#1FA7F3"/><rect width="2" height="5" rx="1" transform="matrix(-1 0 0 1 46 9)" fill="#1FA7F3"/><rect width="2" height="14" rx="1" transform="matrix(-1 0 0 1 66 5)" fill="#1FA7F3"/><rect width="2" height="6" rx="1" transform="matrix(-1 0 0 1 86 9)" fill="#1FA7F3"/><rect width="2" height="16" rx="1" transform="matrix(-1 0 0 1 106 4)" fill="#1FA7F3"/><rect width="2" height="19" rx="1" transform="matrix(-1 0 0 1 10 2)" fill="#1FA7F3"/><rect width="2" height="10" rx="1" transform="matrix(-1 0 0 1 30 7)" fill="#1FA7F3"/><rect width="2" height="10" rx="1" transform="matrix(-1 0 0 1 50 7)" fill="#1FA7F3"/><rect width="2" height="12" rx="1" transform="matrix(-1 0 0 1 70 6)" fill="#1FA7F3"/><rect width="2" height="6" rx="1" transform="matrix(-1 0 0 1 90 9)" fill="#1FA7F3"/><rect width="2" height="10" rx="1" transform="matrix(-1 0 0 1 110 7)" fill="#1FA7F3"/><rect width="2" height="24" rx="1" transform="matrix(-1 0 0 1 14 0)" fill="#1FA7F3"/><rect width="2" height="7" rx="1" transform="matrix(-1 0 0 1 34 8)" fill="#1FA7F3"/><rect width="2" height="14" rx="1" transform="matrix(-1 0 0 1 54 5)" fill="#1FA7F3"/><rect width="2" height="10" rx="1" transform="matrix(-1 0 0 1 74 7)" fill="#1FA7F3"/><rect width="2" height="6" rx="1" transform="matrix(-1 0 0 1 94 9)" fill="#1FA7F3"/><rect width="2" height="5" rx="1" transform="matrix(-1 0 0 1 114 9)" fill="#1FA7F3"/><rect width="2" height="22" rx="1" transform="matrix(-1 0 0 1 18 1)" fill="#1FA7F3"/><rect width="2" height="5" rx="1" transform="matrix(-1 0 0 1 38 9)" fill="#1FA7F3"/><rect width="2" height="15" rx="1" transform="matrix(-1 0 0 1 58 4)" fill="#1FA7F3"/><rect width="2" height="8" rx="1" transform="matrix(-1 0 0 1 78 8)" fill="#1FA7F3"/><rect width="2" height="6" rx="1" transform="matrix(-1 0 0 1 98 9)" fill="#1FA7F3"/><rect width="2" height="4" rx="1" transform="matrix(-1 0 0 1 118 10)" fill="#1FA7F3"/></svg>