<svg width="118" height="24" fill="none" xmlns="http://www.w3.org/2000/svg"><rect x="116" y="9" width="2" height="5" rx="1" fill="#1FA7F3"/><rect x="96" y="3" width="2" height="17" rx="1" fill="#1FA7F3"/><rect x="76" y="9" width="2" height="5" rx="1" fill="#1FA7F3"/><rect x="56" y="4" width="2" height="15" rx="1" fill="#1FA7F3"/><rect x="36" y="8" width="2" height="7" rx="1" fill="#1FA7F3"/><rect x="16" y="7" width="2" height="10" rx="1" fill="#1FA7F3"/><rect x="112" y="7" width="2" height="10" rx="1" fill="#1FA7F3"/><rect x="92" y="5" width="2" height="14" rx="1" fill="#1FA7F3"/><rect x="72" y="9" width="2" height="5" rx="1" fill="#1FA7F3"/><rect x="52" y="5" width="2" height="14" rx="1" fill="#1FA7F3"/><rect x="32" y="9" width="2" height="6" rx="1" fill="#1FA7F3"/><rect x="12" y="4" width="2" height="16" rx="1" fill="#1FA7F3"/><rect x="108" y="2" width="2" height="19" rx="1" fill="#1FA7F3"/><rect x="88" y="7" width="2" height="10" rx="1" fill="#1FA7F3"/><rect x="68" y="7" width="2" height="10" rx="1" fill="#1FA7F3"/><rect x="48" y="6" width="2" height="12" rx="1" fill="#1FA7F3"/><rect x="28" y="9" width="2" height="6" rx="1" fill="#1FA7F3"/><rect x="8" y="7" width="2" height="10" rx="1" fill="#1FA7F3"/><rect x="104" width="2" height="24" rx="1" fill="#1FA7F3"/><rect x="84" y="8" width="2" height="7" rx="1" fill="#1FA7F3"/><rect x="64" y="5" width="2" height="14" rx="1" fill="#1FA7F3"/><rect x="44" y="7" width="2" height="10" rx="1" fill="#1FA7F3"/><rect x="24" y="9" width="2" height="6" rx="1" fill="#1FA7F3"/><rect x="4" y="9" width="2" height="5" rx="1" fill="#1FA7F3"/><rect x="100" y="1" width="2" height="22" rx="1" fill="#1FA7F3"/><rect x="80" y="9" width="2" height="5" rx="1" fill="#1FA7F3"/><rect x="60" y="4" width="2" height="15" rx="1" fill="#1FA7F3"/><rect x="40" y="8" width="2" height="8" rx="1" fill="#1FA7F3"/><rect x="20" y="9" width="2" height="6" rx="1" fill="#1FA7F3"/><rect y="10" width="2" height="4" rx="1" fill="#1FA7F3"/></svg>